PathFileType	4	(X/Y/Z)	C:\Users\willi\Documents\UniDataLokal\DATA_Hans_PhD\TD01\3DGAIT_A_W12\marker_experimental.trc
DataRate	CameraRate	NumFrames	NumMarkers	Units	OrigDataRate	OrigDataStartFrame	OrigNumFrames
100.000000	100.000000	4	76	mm	100.000000	21	174
Frame#	Time	RBAK			C7			CLAV			T10			STRN			RASI			RPSI			LPSI			LASI			RTHI1			RTHI2			RTHI3			RTHI			RKNE			RKNEM			RPAT			RTIB1			RTIB2			RTIB3			RTIB			RANK			RANKM			RHEEL			RTOE			RM5			LTHI1			LTHI2			LTHI3			LTHI			LKNE			LKNEM			LPAT			LTIB1			LTIB2			LTIB3			LTIB			LANK			LANKM			LHEEL			LTOE			LM5			*41			*42			*43			*44			*45			*46			*47			*48			*49			*50			*51			*52			*53			*54			*55			*56			*57			*58			*59			*60			*61			*62			*63			*64			*65			*66			*67			*68			*69			*70			*71			*72			*73			*74			*75			
		X1	Y1	Z1	X2	Y2	Z2	X3	Y3	Z3	X4	Y4	Z4	X5	Y5	Z5	X6	Y6	Z6	X7	Y7	Z7	X8	Y8	Z8	X9	Y9	Z9	X10	Y10	Z10	X11	Y11	Z11	X12	Y12	Z12	X13	Y13	Z13	X14	Y14	Z14	X15	Y15	Z15	X16	Y16	Z16	X17	Y17	Z17	X18	Y18	Z18	X19	Y19	Z19	X20	Y20	Z20	X21	Y21	Z21	X22	Y22	Z22	X23	Y23	Z23	X24	Y24	Z24	X25	Y25	Z25	X26	Y26	Z26	X27	Y27	Z27	X28	Y28	Z28	X29	Y29	Z29	X30	Y30	Z30	X31	Y31	Z31	X32	Y32	Z32	X33	Y33	Z33	X34	Y34	Z34	X35	Y35	Z35	X36	Y36	Z36	X37	Y37	Z37	X38	Y38	Z38	X39	Y39	Z39	X40	Y40	Z40	X41	Y41	Z41	X42	Y42	Z42	X43	Y43	Z43	X44	Y44	Z44	X45	Y45	Z45	X46	Y46	Z46	X47	Y47	Z47	X48	Y48	Z48	X49	Y49	Z49	X50	Y50	Z50	X51	Y51	Z51	X52	Y52	Z52	X53	Y53	Z53	X54	Y54	Z54	X55	Y55	Z55	X56	Y56	Z56	X57	Y57	Z57	X58	Y58	Z58	X59	Y59	Z59	X60	Y60	Z60	X61	Y61	Z61	X62	Y62	Z62	X63	Y63	Z63	X64	Y64	Z64	X65	Y65	Z65	X66	Y66	Z66	X67	Y67	Z67	X68	Y68	Z68	X69	Y69	Z69	X70	Y70	Z70	X71	Y71	Z71	X72	Y72	Z72	X73	Y73	Z73	X74	Y74	Z74	X75	Y75	Z75	X76	Y76	Z76	

22	0.21	-1150.35107421875	1191.5263671875	353.0678405761718	-1149.744995117188	1221.093017578125	226.6765899658203	-1030.129272460938	1158.003784179688	243.3594970703124	-1192.016967773438	959.8209838867189	217.217788696289	-980.1344604492186	952.5479736328126	236.2025299072265	-1055.293334960938	869.1014404296876	338.8280029296874	-1207.862915039062	853.5191650390626	270.8812561035156	-1210.804931640625	849.2278442382814	191.7613372802734	-1073.694702148438	847.5091552734376	107.3236083984374	-1120	606.2338867187501	347.9796142578124	-1061.016357421875	571.5968627929689	365.3626403808593	-1079.907836914062	513.4125976562501	343.8213806152343	-1066.501220703125	536.7496337890626	392.9729309082031	-1032.585327148438	426.5881042480469	339.5509643554687	-995.9082641601562	431.4999694824219	237.1925811767578	-954.8326416015625	447.7939147949219	303.4430847167968	-1000.811340332031	232.4896087646485	265.8151245117187	-1018.439758300781	185.4026336669922	309.0413818359374	-1014.02587890625	142.2712097167969	256.7119140624999	-1072.4072265625	152.5313110351563	350.9150085449218	-1068.210327148438	66.60018920898445	295.9471435546874	-1041.01904296875	74.48905944824224	224.014663696289	-1111.291870117188	39.82918548583991	245.7984771728515	-939.9052734375	40.66925430297857	303.8200378417968	-978.8038940429688	26.44289588928229	336.7044982910156	-1165.495971679688	563.8450317382814	122.3523712158202	-1131.6083984375	519.0958251953126	86.84217834472649	-1148.989990234375	466.8479309082032	123.9779205322265	-1127.389404296875	500.7216796875001	49.22819137573235	-1121.124389648438	413.8327026367188	84.36222076416009	-1084.550537109375	393.4172668457032	186.6093749999999	-1038.314086914062	391.8363952636719	119.6523284912109	-1242.442749023438	267.8363647460938	144.6956329345702	-1301.454223632812	270.1390686035157	104.728790283203	-1325.8017578125	219.5887908935548	155.8887176513671	-1355.892700195312	294.2965393066407	81.92017364501945	-1424.198486328125	239.0652465820313	137.8261718749999	-1388.678833007812	204.955535888672	199.1563873291015	-1438.181640625	260.3345031738282	202.008804321289	-1441.26708984375	101.5211791992188	129.8027954101562	-1462.233276367188	134.4356994628907	103.408592224121	nan	nan	nan	nan	nan	nan	nan	nan	nan	nan	nan	nan	nan	nan	nan	nan	nan	nan	nan	nan	nan	nan	nan	nan	nan	nan	nan	nan	nan	nan	nan	nan	nan	nan	nan	nan	nan	nan	nan	nan	nan	nan	nan	nan	nan	nan	nan	nan	nan	nan	nan	nan	nan	nan	nan	nan	nan	nan	nan	nan	nan	nan	nan	nan	nan	nan	nan	nan	nan	nan	nan	nan	nan	nan	nan	nan	nan	nan	nan	nan	nan	nan	nan	nan	nan	nan	nan	nan	nan	nan	nan	nan	nan	nan	nan	nan	nan	nan	nan	nan	nan	nan	nan	nan	nan	
23	0.22	-1136.06103515625	1193.094970703125	353.3394165039062	-1135.562866210938	1223.016479492188	226.6612701416015	-1016.145812988281	1159.791748046875	242.7283020019531	-1178.285766601562	961.8236083984376	217.9819946289062	-966.5636596679686	954.7853393554689	236.5638732910156	-1042.176025390625	871.7360839843751	339.7189331054687	-1194.4052734375	855.7540283203126	271.6947021484374	-1197.125	851.4039306640626	192.651870727539	-1059.88134765625	850.2339477539064	108.5190963745116	-1111.193603515625	608.1705322265626	348.4667053222656	-1053.132690429688	572.0430297851564	365.9854125976562	-1073.2626953125	514.3392333984376	344.1024780273437	-1059.775634765625	536.9997558593751	393.2721862792968	-1027.743408203125	426.5267639160157	339.8103027343749	-991.0450439453125	430.7145385742188	237.0865020751953	-949.568359375	446.0864562988282	303.6208801269531	-998.6832275390625	231.9696655273438	266.1627807617187	-1017.011413574219	185.0594787597657	309.2658386230468	-1013.064025878906	141.9509277343751	256.9677124023437	-1071.461791992188	152.7764739990235	350.9403076171874	-1068.109741210938	66.7622375488282	296.1012268066406	-1040.839233398438	74.61727905273443	224.2003021240234	-1111.38427734375	40.28058624267585	245.9339599609374	-939.974609375	40.59506988525396	303.8117675781249	-978.83203125	26.37271499633795	336.7352600097656	-1143.121337890625	563.9920654296876	122.520767211914	-1106.98486328125	520.9531250000001	87.24774169921868	-1122.046142578125	467.8371582031251	124.3333663940429	-1102.273193359375	502.8526916503907	49.66567993164056	-1092.080322265625	416.6163940429688	84.65531921386712	-1055.1064453125	397.3795776367188	187.1047668457031	-1008.609802246094	397.2164611816407	120.0964202880859	-1212.220947265625	271.0060424804688	144.9117431640624	-1271.231689453125	273.4582824707032	104.877212524414	-1295.887329101562	222.6776733398438	156.1838836669921	-1325.720336914062	297.8585815429688	82.20740509033195	-1394.275512695312	241.854721069336	137.6996459960937	-1358.584838867188	208.5108642578126	199.3251495361327	-1410.057006835938	262.2968139648439	201.8250732421874	-1406.558959960938	103.1700439453126	128.1842803955077	-1427.937866210938	136.3535156250001	102.2449569702148	nan	nan	nan	nan	nan	nan	nan	nan	nan	nan	nan	nan	nan	nan	nan	nan	nan	nan	nan	nan	nan	nan	nan	nan	nan	nan	nan	nan	nan	nan	nan	nan	nan	nan	nan	nan	nan	nan	nan	nan	nan	nan	nan	nan	nan	nan	nan	nan	nan	nan	nan	nan	nan	nan	nan	nan	nan	nan	nan	nan	nan	nan	nan	nan	nan	nan	nan	nan	nan	nan	nan	nan	nan	nan	nan	nan	nan	nan	nan	nan	nan	nan	nan	nan	nan	nan	nan	nan	nan	nan	nan	nan	nan	nan	nan	nan	nan	nan	nan	nan	nan	nan	nan	nan	nan	
24	0.23	-1121.855346679688	1194.73291015625	353.4761657714843	-1121.511962890625	1224.916625976562	226.5579376220703	-1002.30517578125	1161.596313476562	241.9374237060546	-1164.65673828125	963.8070068359376	218.7298431396484	-953.0078124999999	957.1027221679689	236.9638214111328	-1029.010375976562	874.2599487304689	340.5403137207031	-1181.040405273438	858.0006103515626	272.4388732910156	-1183.548706054688	853.6369628906251	193.439956665039	-1045.94775390625	852.9198608398439	109.8918151855468	-1102.68603515625	610.0910644531251	348.5527343749999	-1045.607788085938	572.4030151367189	366.1870422363281	-1066.978637695312	515.2597045898439	343.8218078613281	-1053.417114257812	537.1885375976564	393.0226135253906	-1023.327209472656	426.4905700683594	339.6509399414062	-986.90576171875	430.0847167968751	236.2930908203124	-944.7930297851562	444.5212097167969	302.8067932128906	-996.7965698242188	231.5169525146485	266.1305847167968	-1015.641479492188	184.8251037597657	309.1601562499999	-1012.199768066406	141.6688079833985	256.9420471191406	-1070.477172851562	153.1643981933594	350.7317199707031	-1067.956909179688	66.98217010498054	296.1247863769531	-1040.652709960938	74.70450592041021	224.2164154052734	-1111.465942382812	40.77520370483406	246.0067443847656	-939.9832763671875	40.5289039611817	303.7347412109374	-978.82275390625	26.38011550903326	336.7008972167968	-1120.85107421875	564.6142578125001	122.2474288940429	-1082.352661132812	523.3493652343751	87.44921874999993	-1095.31982421875	469.4502258300782	124.3733749389648	-1076.876220703125	505.5468139648438	49.93954849243158	-1063.150268554688	420.0148010253907	84.97326660156243	-1025.989868164062	402.0335998535157	187.6795196533203	-979.212158203125	403.3375854492188	120.7116928100585	-1181.505737304688	274.0886230468751	145.2505798339843	-1240.44970703125	276.1181030273438	104.9531478881835	-1265.208374023438	225.1381225585938	156.5362243652343	-1295.0732421875	300.1282043457032	82.20556640624991	-1363.676513671875	242.9375305175782	137.266876220703	-1327.66455078125	211.0666656494141	199.3968200683593	-1381.646240234375	262.7500915527344	201.1376953124999	-1369.827392578125	103.1283493041993	127.6150360107421	-1391.961791992188	135.9782867431641	101.7481231689452	nan	nan	nan	nan	nan	nan	nan	nan	nan	nan	nan	nan	nan	nan	nan	nan	nan	nan	nan	nan	nan	nan	nan	nan	nan	nan	nan	nan	nan	nan	nan	nan	nan	nan	nan	nan	nan	nan	nan	nan	nan	nan	nan	nan	nan	nan	nan	nan	nan	nan	nan	nan	nan	nan	nan	nan	nan	nan	nan	nan	nan	nan	nan	nan	nan	nan	nan	nan	nan	nan	nan	nan	nan	nan	nan	nan	nan	nan	nan	nan	nan	nan	nan	nan	nan	nan	nan	nan	nan	nan	nan	nan	nan	nan	nan	nan	nan	nan	nan	nan	nan	nan	nan	nan	nan	
25	0.24	-1107.704833984375	1196.407836914062	353.5002746582031	-1107.578002929688	1226.758056640625	226.3851623535156	-988.5877075195311	1163.37646484375	241.0108032226562	-1151.109375	965.7282104492189	219.4405364990234	-939.4537963867186	959.4014282226564	237.4328308105468	-1015.817504882812	876.6046752929689	341.3359985351562	-1167.756591796875	860.2086181640626	273.0601501464843	-1170.046264648438	855.8447875976564	194.0706787109374	-1031.883911132812	855.4522705078126	111.3943328857421	-1094.37841796875	612.0097045898439	348.3100585937499	-1038.318725585938	572.7362670898439	366.0056762695312	-1060.934326171875	516.2216186523439	343.0926818847656	-1047.245727539062	537.4411010742189	392.3508300781249	-1019.231018066406	426.5129699707032	339.1243591308593	-983.2532958984375	429.6252136230469	235.0433502197265	-940.422607421875	443.1342163085938	301.2799377441406	-995.0909423828125	231.1502532958985	265.7739562988281	-1014.294677734375	184.7157592773438	308.7938842773437	-1011.404846191406	141.4429321289063	256.6881408691406	-1069.435668945312	153.7138366699219	350.3678894042968	-1067.74853515625	67.28206634521491	296.0551147460937	-1040.448120117188	74.78292846679693	224.1077575683593	-1111.5205078125	41.33884811401374	246.0323486328124	-939.9386596679688	40.46901702880865	303.6173706054687	-978.7786254882812	26.44203948974615	336.6146545410156	-1098.636352539062	565.6899414062501	121.5109024047851	-1057.704345703125	526.2370605468751	87.42632293701165	-1068.849365234375	471.6367187500001	124.0658798217773	-1051.169677734375	508.7807922363282	50.02951812744134	-1034.393188476562	423.9480895996094	85.29351043701166	-997.3327026367188	407.2710266113282	188.3183898925781	-950.2257690429688	410.0850524902344	121.5168533325195	-1150.398315429688	276.9915161132813	145.734634399414	-1209.169311523438	277.9882202148438	105.0076370239257	-1233.804321289062	226.8798980712891	156.9934997558593	-1263.985595703125	300.9593200683594	81.91141510009759	-1332.425048828125	242.3117675781251	136.609161376953	-1296.002197265625	212.504608154297	199.4083251953124	-1352.821411132812	261.6411132812501	200.0758209228515	-1331.374877929688	101.7541046142579	127.9811859130859	-1354.599853515625	133.6397247314454	101.8580703735351	nan	nan	nan	nan	nan	nan	nan	nan	nan	nan	nan	nan	nan	nan	nan	nan	nan	nan	nan	nan	nan	nan	nan	nan	nan	nan	nan	nan	nan	nan	nan	nan	nan	nan	nan	nan	nan	nan	nan	nan	nan	nan	nan	nan	nan	nan	nan	nan	nan	nan	nan	nan	nan	nan	nan	nan	nan	nan	nan	nan	nan	nan	nan	nan	nan	nan	nan	nan	nan	nan	nan	nan	nan	nan	nan	nan	nan	nan	nan	nan	nan	nan	nan	nan	nan	nan	nan	nan	nan	nan	nan	nan	nan	nan	nan	nan	nan	nan	nan	nan	nan	nan	nan	nan	nan	
